<?xml version="1.0" standalone="no"?>
<!DOCTYPE svg PUBLIC "-//W3C//DTD SVG 20010904//EN"
 "http://www.w3.org/TR/2001/REC-SVG-20010904/DTD/svg10.dtd">
<svg version="1.0" xmlns="http://www.w3.org/2000/svg"
 width="125.000000pt" height="125.000000pt" viewBox="0 0 125.000000 125.000000"
 preserveAspectRatio="xMidYMid meet">

<g transform="translate(0.000000,125.000000) scale(0.100000,-0.100000)"
fill="#000000" stroke="none">
<path d="M225 1212 c-62 -21 -114 -61 -150 -111 -52 -76 -55 -105 -55 -482 0
-327 1 -352 21 -403 25 -67 91 -139 157 -169 46 -21 58 -22 427 -22 368 0 382
1 426 21 60 28 125 93 153 153 20 44 21 58 21 426 l0 380 -24 49 c-31 63 -83
115 -146 146 l-50 25 -365 2 c-326 3 -370 1 -415 -15z m566 -245 c70 -34 142
-106 177 -177 24 -49 27 -66 27 -155 0 -89 -3 -106 -27 -156 -36 -72 -105
-141 -175 -176 -79 -38 -202 -44 -287 -14 l-59 21 -95 -30 c-53 -16 -98 -28
-100 -25 -3 2 10 46 27 96 l32 92 -23 51 c-34 77 -33 210 4 288 46 98 133 175
238 209 14 5 66 7 116 6 74 -2 100 -7 145 -30z"/>
<path d="M513 919 c-64 -25 -131 -88 -163 -154 -36 -74 -35 -191 2 -263 l27
-52 -19 -55 c-10 -30 -18 -55 -16 -55 2 0 27 8 57 19 54 18 55 18 94 -2 27
-14 66 -22 121 -25 72 -4 89 -1 136 20 76 35 127 83 160 153 72 152 9 327
-145 407 -62 32 -184 35 -254 7z m43 -165 c14 -37 15 -50 6 -65 -19 -30 -14
-44 29 -88 53 -53 82 -61 115 -30 l24 23 45 -22 c31 -15 45 -28 45 -42 0 -26
-32 -58 -66 -66 -36 -9 -121 19 -172 56 -51 37 -120 127 -128 168 -12 60 16
112 61 112 19 0 27 -9 41 -46z"/>
</g>
</svg>
